<?xml version="1.0" encoding="utf-8"?>
<!-- Generator: Adobe Illustrator 16.0.0, SVG Export Plug-In . SVG Version: 6.00 Build 0)  -->
<!DOCTYPE svg PUBLIC "-//W3C//DTD SVG 1.1//EN" "http://www.w3.org/Graphics/SVG/1.1/DTD/svg11.dtd">
<svg version="1.1" id="Layer_1" xmlns="http://www.w3.org/2000/svg" xmlns:xlink="http://www.w3.org/1999/xlink" x="0px" y="0px"
	 width="742px" height="247px" viewBox="0 0 742 247" enable-background="new 0 0 742 247" xml:space="preserve">
<g>
	<path fill="#FFFFFF" d="M326.857,155.609c-6.168-7.036-9.252-16.046-9.252-27.033c0-10.989,3.084-19.999,9.252-27.035
		s14.457-10.554,24.865-10.554c7.421,0,13.638,1.927,18.649,5.781v12.868c-4.722-5.206-10.504-7.807-17.348-7.807
		c-7.036,0-12.601,2.505-16.698,7.517c-4.096,5.012-6.143,11.423-6.143,19.229c0,7.805,2.047,14.214,6.143,19.228
		c4.097,5.012,9.663,7.518,16.698,7.518c7.035,0,12.818-2.602,17.348-7.809v12.724c-5.011,3.951-11.228,5.926-18.649,5.926
		C341.314,166.162,333.025,162.646,326.857,155.609z"/>
	<path fill="#FFFFFF" d="M436.44,95.324l-6.216,9.253c-2.796-1.542-6.17-2.313-10.121-2.313c-5.396,0-10.144,2.097-14.238,6.288
		c-4.096,4.194-6.146,9.421-6.146,15.685v40.479h-12.721V92.435h11.71l0.578,10.986c5.783-8.288,12.915-12.434,21.395-12.434
		C427.333,90.987,432.586,92.435,436.44,95.324z"/>
	<path fill="#FFFFFF" d="M508.869,166.597c0,10.408-3.012,18.866-9.036,25.371c-6.023,6.506-14.624,9.758-25.805,9.758
		c-9.638,0-18.023-2.313-25.153-6.938v-13.88c7.227,6.265,15.949,9.397,26.166,9.397c6.938,0,12.167-2.073,15.685-6.217
		c3.519-4.143,5.278-9.976,5.278-17.492v-11.132c-5.785,7.133-13.301,10.697-22.555,10.697c-7.999,0-14.744-2.795-20.238-8.384
		c-5.493-5.591-8.241-12.384-8.241-20.385V92.435h12.723v43.658c0,5.204,1.83,9.612,5.493,13.228
		c3.662,3.614,8.145,5.421,13.445,5.421c5.396,0,9.976-1.807,13.734-5.421c3.757-3.615,5.639-8.023,5.639-13.228V92.435h12.865
		V166.597z"/>
	<path fill="#FFFFFF" d="M590.841,101.759c6.072,7.181,9.109,16.117,9.109,26.817c0,10.697-3.037,19.635-9.109,26.815
		c-6.071,7.181-14.117,10.771-24.14,10.771c-9.543,0-17.399-3.711-23.567-11.132v45.829h-12.577V92.435h12.577v9.686
		c6.168-7.423,14.024-11.133,23.567-11.133C576.724,90.987,584.77,94.578,590.841,101.759z M581.3,147.297
		c4.146-4.963,6.217-11.204,6.217-18.721c0-7.519-2.07-13.782-6.217-18.795c-4.145-5.011-9.684-7.518-16.624-7.518
		c-5.107,0-9.639,1.735-13.59,5.204c-3.95,3.472-6.603,7.902-7.952,13.302v15.611c1.35,5.398,4.002,9.809,7.952,13.229
		c3.951,3.42,8.482,5.131,13.59,5.131C571.616,154.741,577.155,152.261,581.3,147.297z"/>
	<path fill="#FFFFFF" d="M637.613,68.797c1.784-2.17,4.072-3.253,6.866-3.253c3.759,0,6.795,1.541,9.108,4.626l7.229-7.807
		c-4.146-5.013-9.639-7.518-16.482-7.518c-6.168,0-11.42,2.071-15.757,6.215c-4.337,4.146-6.506,9.206-6.506,15.182v16.192h-12.145
		v9.974h12.145v62.308h12.867v-62.308h18.938v-9.974h-18.938V76.964C634.939,73.687,635.831,70.966,637.613,68.797z"/>
	<path fill="#FFFFFF" d="M731.224,166.597c0,10.408-3.013,18.866-9.036,25.371c-6.023,6.506-14.626,9.758-25.806,9.758
		c-9.637,0-18.022-2.313-25.155-6.938v-13.88c7.229,6.265,15.951,9.397,26.167,9.397c6.94,0,12.169-2.073,15.686-6.217
		c3.518-4.143,5.276-9.976,5.276-17.492v-11.132c-5.783,7.133-13.3,10.697-22.552,10.697c-8.001,0-14.746-2.795-20.24-8.384
		c-5.493-5.591-8.239-12.384-8.239-20.385V92.435h12.721v43.658c0,5.204,1.833,9.612,5.495,13.228
		c3.662,3.614,8.143,5.421,13.442,5.421c5.399,0,9.977-1.807,13.736-5.421c3.759-3.615,5.637-8.023,5.637-13.228V92.435h12.868
		V166.597z"/>
</g>
<path fill-rule="evenodd" clip-rule="evenodd" fill="#FFFFFF" d="M122.565,33.548c-3.127-3.65-6.226-7.285-6.515-12.458
	c-0.247-4.434,1.404-7.697,5.429-9.677c1.106-0.543,0.548-0.27,1.902-0.71c1.295-0.133,1.658-0.133,2.972,0.033
	c1.644,0.365,2.706,0.465,3.984,1.525c1.93,1.601,3.354,3.29,3.752,6.078c0.272,3.86-1.15,7.314-3.161,10.498
	c-1.165,1.847-2.767,3.379-3.889,5.298C126.056,35.819,124.687,35.554,122.565,33.548z"/>
<path fill-rule="evenodd" clip-rule="evenodd" fill="#FFFFFF" d="M92.287,144.361c0.748,0.361,1.302,0.915,1.663,1.662
	c-0.519,2.565-0.776,5.168-1.109,7.762c-0.377,0.689-0.64,1.409-0.554,2.217c0.522,0.411,1.123,0.611,1.771,0.48
	c2.529-0.51,5.106-0.662,7.652-1.035c1.944-0.652,2.999-0.229,3.401,2.058c0.44,2.504,1.406,4.915,2.142,7.366
	c0.631,0.699,0.123,2.916,2.217,1.663c2.372-1.459,4.692-3.011,7.134-4.339c1.364-0.743,2.548-0.213,3.481,1.122
	c1.562,2.232,3.264,4.366,4.907,6.542c0.554,0.707,1.108,0.66,1.663,0c1.396-2.375,3.61-4.12,4.875-6.647
	c0.849-1.696,2.196-2.727,4.333-1.013c1.896,1.521,4.194,2.54,6.314,3.781c2.016,1.265,2.465-0.08,2.772-1.663
	c0-0.37,0-0.739,0-1.108c0.642-0.319,1.196-0.467,1.125,0.584c-1.545,5.091,1.089,7.86,5.318,9.936
	c3.583,1.758,6.839,3.99,8.775,7.691c0.473,0.905,1.005,1.763,0.882,2.84c-1.342,0.787-1.626-0.412-1.956-1.162
	c-2.107-4.786-6.553-6.813-10.702-9.203c-1.002-0.578-1.47-0.128-1.886,0.798c-0.844,1.881-1.126,3.915-1.498,5.887
	c-1.218,6.452,0.876,11.501,6.75,14.805c1.523,0.856,3.121,1.603,4.478,2.748c0.972,0.819,1.608,0.601,1.954-0.68
	c0.841-3.119,1.785-6.204,1.608-9.507c-0.072-1.348-0.25-2.835,1.248-3.7c1.357,3.46,0.537,6.884-0.29,10.261
	c-1.839,7.509-1.743,7.896,5.15,11.626c4.442,2.404,8.085,5.432,9.17,10.681c0.09,0.433,0.02,0.9,0.025,1.351
	c-0.91,1.339-1.275,0.004-1.372-0.428c-1.305-5.837-5.7-8.731-10.503-11.321c-2.459-1.325-2.917-1.222-3.608,1.398
	c-0.281,1.068-0.485,2.157-0.804,3.212c-0.248,0.819-0.421-0.269-1.553-0.972c0.476-2.527,0.719-3.145,1.253-5.658
	c0.333-1.568-0.172-2.728-1.454-3.565c-1.847-1.21-3.697-2.422-5.602-3.538c-7.422-4.353-9.876-10.048-7.924-18.405
	c2.292-9.812,2.875-9.174-6.242-14.507c-3.682-2.153-3.695-2.164-6.141,1.284c-1.333,1.878-2.618,3.788-3.911,5.693
	c-1.051,1.549-1.015,3.12,0.034,4.643c1.516,2.2,3.116,4.341,4.599,6.562c3.17,4.748,4.325,9.719,1.455,15.063
	c-0.599-0.188-0.863-0.635-0.961-1.217c-0.018-0.269,0-0.539,0.047-0.805c0.745-2.544,1.173-5.079-0.245-7.555
	c-0.847-3.834-3.772-6.49-5.558-9.788c-0.88-1.548-1.359-0.474-1.88,0.296c-2.576,3.372-4.839,6.924-6.403,10.89
	c-0.417,0.166-1.187,1.327-1.521,0.992c0.083-3.441,2.429-7.21,4.347-9.796c5.141-6.932,5.156-7.201-0.056-13.999
	c-3.08-4.018-3.08-4.018-7.418-1.38c-7.415,4.506-7.533,4.829-5.14,13.243c0.223,0.785,0.277,1.617,0.41,2.428
	c-0.843,1.157-1.351,0.61-1.644-0.38c-0.312-1.057-0.404-2.172-0.781-3.219c-0.674-1.87-0.601-4.72-3.997-2.94
	c-0.272,0.143-0.637-0.28-0.791-0.643c5.354-4.274,5.516-4.589,3.418-11.378c-0.604-1.955-0.011-4.863-1.9-5.666
	c-1.572-0.668-3.904,0.455-5.9,0.778c-0.728,0.117-1.456,0.237-2.187,0.324c-3.066,0.366-5.423,1.619-6.182,4.894
	c-0.826-0.345-1.458-1.492-2.578-0.612c-1.141,0.46-2.323,0.713-3.551,0.733c-1.328,0.074-2.682-0.213-3.974,0.303
	c-0.596,0.271-1.197,0.525-1.833,0.679c-1.149,0.183-2.082,0.78-2.922,1.55c-3.746,2.207-5.091,5.8-5.676,9.829
	c-0.491,1.149-0.247,2.344-0.205,3.525c-0.131,0.688-0.272,1.375-0.537,2.023c-0.558,1.016,0.166,0.904,0.787,0.874
	c0.68-0.101,1.352-0.221,2.002-0.449c0.228-0.084,0.461-0.142,0.698-0.189c1.089-0.171,2.213-0.058,3.273-0.439
	c0.24-0.075,0.485-0.124,0.732-0.163c1.24-0.085,2.476-0.184,3.521-0.976c3.238-1.662,5.747-3.98,6.833-7.581
	c0.863-0.883,0.669-2.013,0.713-3.087c0.027-0.241,0.082-0.479,0.15-0.712c0.237-0.683,0.255-1.413,0.44-2.108
	c0.087-0.232,0.229-0.427,0.413-0.591c0.596-0.143,1.455-3.049,1.712-2.608c-0.14,9.301-5.401,18.146-14.487,19.757
	c-1,0.179-2.011,0.284-3.012,0.454c-6.232,1.056-6.702,1.575-7.396,7.928c-0.128,1.178,0.076,2.419-0.589,3.508
	c-0.57-0.296-0.855-0.81-1.064-1.383c-0.335-1.135-0.249-2.302-0.253-3.46c0.024-0.809,0.213-1.594,0.372-2.38
	c0.434-0.854-0.707-1.549-0.254-2.405c2.366-0.586,3.442-2.216,3.753-4.528c0.282-2.103,0.594-4.204,0.976-6.29
	c1.369-7.49,5.735-11.723,13.212-12.92c2.277-0.364,4.547-0.787,6.806-1.253c1.975-0.408,3.127-1.572,3.717-3.606
	c0.91-3.132,0.764-6.425,1.713-9.527c0.284-0.926-0.224-1.082-0.955-1.224c-3.078-0.598-6.163-1.171-9.215-1.883
	c-2.114-0.494-3.638,0.261-4.759,1.937c-1.231,1.838-2.38,3.734-3.502,5.642c-4.125,7.021-9.527,9.452-17.479,7.81
	c-1.898-0.393-3.814-0.734-5.672-1.271c-2.966-0.859-4.977,0.179-6.412,2.789c-1.111,2.021-2.226,4.054-3.51,5.965
	c-2.537,3.775-5.869,6.418-10.659,6.46c-4.421,0.038-7.978-2.966-8.854-7.286c-0.829-4.09,1.316-8.247,5.182-10.041
	c3.605-1.674,7.325-1.678,11.102-0.74c9.982,2.479,9.116,2.398,13.906-5.759c4.333-7.379,10.01-9.793,18.521-7.776
	c9.756,2.313,9.006,2.589,14.102-6.032c2.253-3.813,2.239-3.818-1.382-6.54c-8.117-6.097-7.473-5.867-15.31-0.056
	c-7.103,5.264-13.178,5.348-20.303,0.166c-7.706-5.602-6.797-5.865-14.534,0.068c-1.913,1.467-3.922,2.768-6.287,3.416
	c-6.535,1.792-10.984-0.439-13.406-6.735c-0.225-1.146-0.374-2.219,0.036-3.847c2.758-6.679,8.271-8.856,15.095-5.98
	c2.415,1.019,4.418,2.662,6.48,4.214c4.94,3.72,5.854,3.72,10.809-0.103c2.267-1.75,4.499-3.56,7.263-4.497
	c4.717-1.6,9.103-0.792,13.186,1.927c2.302,1.532,4.552,3.144,6.852,4.68c1.615,1.08,3.295,1.135,4.918,0.014
	c2.654-1.835,5.27-3.726,7.929-5.555c0.75-0.516,0.607-0.951,0.176-1.588c-0.668-0.986-1.24-2.036-1.853-3.06
	c-0.235-0.611,0.053-0.726,0.582-0.609c1.376,0.609,1.883,1.99,2.616,3.119c1.06,1.632,1.098,2.86-1.207,3.791
	c-2.175,0.877-4.133,2.372-6.053,3.779c-1.772,1.299-0.809,2.622,0.429,3.607c1.628,1.296,3.368,2.453,5.097,3.616
	c2.123,1.428,2.296,3.006,0.829,5.108c-1.129,1.618-1.894,3.489-2.82,5.248c-0.883,1.706-0.509,2.704,1.509,3.081
	C87.417,142.918,89.884,143.527,92.287,144.361z"/>
<path fill-rule="evenodd" clip-rule="evenodd" fill="#FFFFFF" d="M164.943,159.789c2.372,0.333,4.765,0.561,7.113,1.019
	c7.32,1.43,11.261,5.473,12.616,12.819c0.402,2.176,0.838,4.349,1.118,6.543c0.323,2.529,1.887,3.662,4.194,4.039
	c2.548,0.417,5.114,0.724,7.654,1.177c2.991,0.533,5.562,1.925,7.695,4.098c3.7,3.771,3.725,9.658,0.062,13.157
	c-3.708,3.541-9.535,3.352-13.187-0.433c-2.9-3.005-4.055-6.755-4.51-10.775c-0.882-7.781-1.393-8.324-9.094-9.31
	c-9.994-1.278-13.987-5.193-15.573-15.241c-0.301-1.91-0.654-3.813-0.982-5.72C162.01,158.589,163.915,160.112,164.943,159.789z"/>
<path fill-rule="evenodd" clip-rule="evenodd" fill="#FFFFFF" d="M265.19,204.241c0.374,2.007,0.386,2.629,0.038,4.42
	c-1.233,4.383-3.522,7.882-7.982,9.582c-5.844,2.228-11.837,0.174-16.263-5.544c-2.189-2.83-3.47-6.072-4.367-9.479
	c-1.149-4.367-2.191-8.766-5.126-12.551c4.945,1.998,10.016,1.412,15.036,1.41c4.529-0.001,8.721,1.089,12.575,3.574
	C262.317,197.728,264.125,200.695,265.19,204.241z"/>
<path fill-rule="evenodd" clip-rule="evenodd" fill="#FFFFFF" d="M124.438,76.178c-1.295,3.124-4.104,5.256-5.456,8.377
	c-0.498,1.148-1.553,1.215-2.747,0.408c-2.561-1.73-5.241-3.281-7.873-4.906c-0.525,0.273-1.26-0.086-1.663,0.555
	c-0.579,2.812-1.995,5.417-1.841,8.431c0.045,0.881-0.62,2.152-1.696,2.233c-0.894,0.068-2.34,0.385-2.562-1.271
	c2.046,0.544,2.91-0.211,3.121-2.354c0.197-1.999,0.77-3.981,1.358-5.916c0.854-2.808,0.267-5.035-2.23-6.673
	c1.519-0.501,2.4-1.4,2.443-3.145c0.041-1.655,0.713-3.221,1.111-4.826c1.475-5.935-0.388-10.644-5.228-14.276
	c-1.921-1.441-4.128-2.404-6.119-3.729c-0.968-0.643-1.523-0.354-1.708,0.778c-0.702,4.303-2.811,8.436-1.458,12.992
	c0.246,0.829,0.326,1.873-0.79,2.381c-1.764-3.377-1.601-6.921-0.899-10.508c0.106-0.543,0.261-1.075,0.389-1.614
	c2.056-8.586,2.08-8.632-5.747-12.99c-3.662-2.038-6.656-4.605-8.229-8.607c-1.835-4.666,0.198-9.756,4.759-11.81
	c4.478-2.017,9.718,0,11.906,4.56c1.634,3.409,1.679,6.95,0.895,10.551c-0.529,2.432-1.226,4.815-1.55,7.303
	c-0.249,1.9,0.283,3.28,1.793,4.292c1.76,1.18,3.55,2.321,5.387,3.374c7.468,4.281,9.929,9.683,8.164,18.061
	c-0.229,1.083-0.471,2.163-0.725,3.24c-1.38,5.856-1.091,6.575,4.041,9.551c2.112,1.224,4.478,3.556,6.334,3.219
	c1.69-0.307,2.9-3.512,4.229-5.5c1.545-2.314,3.81-4.496,1.889-7.68c0.205-0.316,0.518-0.406,0.87-0.415
	c0.224,0.02,0.442,0.067,0.655,0.14c0.502,0.209,1.073,0.303,1.419,0.793c-0.943,1.883-0.376,3.536,0.773,5.105
	c1.84,2.514,3.676,5.03,5.514,7.548c2.643-1.599,5.203-3.356,7.947-4.755c3.718-1.897,2.682-4.928,2.238-7.89
	c1.724-0.291,1.73,1.068,2.052,2.12c0.009,0.697,0.302,0.871,0.904,0.462c3.168-1.855,5.979-4.289,9.411-5.695
	c0.266,0.059,0.473,0.201,0.624,0.428c-1.925,2.618-4.93,3.761-7.521,5.457c-4.041,2.646-4.406,3.422-3.263,8.163
	c0.538,2.232,1.199,4.438,1.649,6.688c0.217,1.084,0.609,1.344,1.656,1.135c2.52-0.502,5.069-0.855,7.59-1.357
	c4.183-0.832,4.528-1.223,5.373-5.426c0.107-0.53,0.305-1.041,0.46-1.562c0.62,0.231,1.031,0.686,1.34,1.252
	c0.217,1.031-0.762,2.446,0.967,2.993c0.331,0.225,0.566,0.514,0.637,0.915c-4.395,0.483-4.936,3.925-5.591,7.28
	c-0.372-0.086-0.438-0.45-0.634-0.695c0.27-4.037,0.237-4.185-3.911-3.242c-2.143,0.486-4.382,0.151-6.45,1.021
	c-1.258,0.529-2.016-0.374-2.269-1.307c-0.876-3.233-1.573-6.514-2.337-9.777c-0.555-0.613-1.109-0.629-1.664,0
	c-2.969,0.953-5.515,2.708-7.99,4.499c-1.133,0.82-1.541,0.625-2.406-0.263c-2.05-2.104-3.104-4.905-5.125-7.007
	C126.035,76.681,125.812,75.277,124.438,76.178z"/>
<path fill-rule="evenodd" clip-rule="evenodd" fill="#FFFFFF" d="M164.943,159.789c-0.684,1.047-2.616-0.534-2.893,1.373
	c-0.729-2.021-2.285-2.982-4.305-3.326c-2.892-0.491-5.803-0.886-8.673-1.483c-1.37-0.285-1.253,0.548-1.438,1.347
	c-0.474,2.042-0.625,4.169-1.561,6.094c-0.238-0.459-0.655-0.573-1.125-0.584c0.185-0.74,0.37-1.479,0.554-2.219
	c0.452-1.456,0.528-3.008,1.109-4.434c0.14-1.463,1.06-1.886,2.308-1.524c0.891,0.259,1.758,0.46,2.681,0.415
	c0.825,0.683,1.942-0.101,2.772,0.555c0.924,0.185,1.848,0.369,2.771,0.555c0.907-0.331,1.952-0.479,2.218-1.664
	c-1.322-2.464-1.131-5.249-1.643-7.883c-0.354-1.824,0.265-3.207,2.197-3.758c0.83-0.654,1.947,0.129,2.771-0.555
	c1.982,0.303,3.694-0.748,5.543-1.107c1.075-0.518,1.433-1.214,0.555-2.219c-0.516-0.894-0.601-2-1.68-2.611
	c-1.249-0.708-1.257-1.82-0.517-2.973c1.276,1.888,2.542,3.78,3.831,5.659c1.021,1.489,2.33,2.202,4.223,1.754
	c2.836-0.672,5.704-1.217,8.558-1.815c0.472,0.326,0.957,0.646,0.51,1.326c-0.735,0.733-1.683,0.906-2.655,1.015
	c-1.06,0.022-2.056,0.429-3.097,0.551c-0.621,0.096-1.233,0.232-1.838,0.396c-2.217,0.668-0.25,1.479-0.069,2.221
	c1.268,2.02,2.312,4.166,3.814,6.046c3.492,4.371,8.906,6.185,14.282,4.509c2.115-0.658,4.246-1.137,6.409-1.511
	c1.237-0.101,0.855-1.479,1.564-1.995c1.974,2.99,4.772,2.989,7.823,2.199c2.5-0.646,4.987-1.433,7.532-1.789
	c5.713-0.801,10.711,1.733,12.491,6.077c1.444,3.528,0.813,6.761-1.684,9.519c-2.5,2.763-5.679,3.667-9.314,2.621
	c-3.738-1.074-6.449-3.48-8.515-6.691c-1.347-2.095-2.692-4.191-4.021-6.297c-1.184-1.876-2.886-2.486-4.988-2.017
	c-2.429,0.542-4.84,1.166-7.266,1.725c-7.122,1.639-12.711-0.61-16.717-6.721c-1.366-2.084-2.698-4.188-4.049-6.279
	c-0.952-1.472-2.273-2.119-4.017-1.723c-3.236,0.732-6.463,1.505-9.703,2.221c-0.831,0.184-1.003,0.603-0.86,1.378
	c0.469,2.538,0.903,5.082,1.331,7.628C160.646,156.682,161.751,159.063,164.943,159.789z"/>
<path fill-rule="evenodd" clip-rule="evenodd" fill="#FFFFFF" d="M165.032,86.776c-0.227-0.206-0.455-0.414-0.682-0.621
	c0.913-1.663,2.658-1.432,4.128-1.773c2.499-0.582,5.148-0.508,7.428-1.994c5.6-3.65,6.221-9.447,6.688-15.315
	c0.072-0.901-0.406-1.389-1.361-1.274c-3.665,0.436-7.334,0.76-10.708,2.538c-4.591,2.42-5.39,6.961-6.573,11.312
	c-0.285,1.048,0.063,2.24-0.711,3.181c-0.784-0.022-1.634,1.42-1.685,0.697c0.312-10.515,5.619-17.641,15.856-19.137
	c8.643-1.262,8.615-1.149,9.74-10.025c0.511-4.037,1.583-7.761,4.507-10.758c3.78-3.872,9.703-3.938,13.348-0.135
	c3.56,3.713,3.326,9.524-0.508,13.165c-2.95,2.8-6.58,3.988-10.505,4.476c-8.662,1.077-8.812,1.051-9.991,9.742
	c-0.926,6.835-3.573,12.219-10.532,14.507C170.752,86.254,167.888,86.551,165.032,86.776z"/>
<path fill-rule="evenodd" clip-rule="evenodd" fill="#FFFFFF" d="M178.693,92.786c4.134-5.448,9.706-6.133,15.884-4.781
	c1.53,0.335,3.042,0.763,4.58,1.054c4.576,0.864,5.128,0.609,7.713-3.371c1.556-2.395,2.614-5.117,4.563-7.248
	c3.068-3.354,6.64-5.622,11.459-4.546c3.722,0.832,6.341,3.75,6.854,7.45c0.535,3.868-1.219,7.479-4.595,9.32
	c-3.407,1.858-7.049,2.02-10.766,1.283c-2.44-0.484-4.861-1.068-7.289-1.61c-2.149-0.479-3.805,0.253-4.964,2.086
	c-1.232,1.947-2.412,3.929-3.625,5.888c-2.085,3.369-4.59,6.24-8.659,7.237c-0.194-0.204-0.278-0.447-0.255-0.728
	c0.135-0.463,0.417-0.851,0.838-1.042c4.687-2.143,6.561-6.754,9.312-10.591c0.531-0.739,0.795-1.819-0.341-1.983
	c-4.202-0.604-8.152-3.058-12.646-1.646c-1.785,0.562-3.38,1.356-4.887,2.442C180.955,92.659,180.031,93.671,178.693,92.786z"/>
<path fill-rule="evenodd" clip-rule="evenodd" fill="#FFFFFF" d="M143.259,55.66c1.121-2.572,3.189-4.271,5.474-5.689
	c9.923-6.16,9.383-4.913,6.339-16.092c-0.875-3.215-0.731-6.37,0.427-9.509c1.785-4.837,6.881-7.385,11.619-5.747
	c4.836,1.673,7.308,6.673,5.677,11.615c-1.111,3.368-3.267,5.951-6.23,7.873c-2.243,1.453-4.494,2.896-6.738,4.348
	c-1.756,1.135-2.4,2.743-1.938,4.766c0.534,2.336,1.177,4.646,1.67,6.99c1.112,5.291,0.892,10.292-3.414,14.304l-0.146-0.142
	c-0.733-1.185,0.032-2.176,0.573-3.049c3.333-5.385,1.158-10.671-0.213-15.959c-0.349-1.343-1.285-1.286-2.36-0.629
	c-2.82,1.726-5.604,3.488-8.021,5.778C145.241,55.213,144.655,56.461,143.259,55.66z"/>
<path fill-rule="evenodd" clip-rule="evenodd" fill="#FFFFFF" d="M143.259,55.66c2.726-1.341,4.396-4.032,7.09-5.478
	c1.02-0.546,2.052-1.183,3.062-1.803c2.67-1.638,3.206-1.546,3.894,1.613c0.824,3.785,2.375,7.479,1.539,11.538
	c-0.515,2.5-2.306,4.4-2.847,6.847c-3.313,2.045-6.627,4.091-9.939,6.136c-0.453-0.018-0.849-0.149-1.109-0.555
	c-0.654-0.881-0.791,0.287-1.485-0.879C141.612,67.885,139.919,60.819,143.259,55.66z"/>
<path fill-rule="evenodd" clip-rule="evenodd" fill="#FFFFFF" d="M178.693,92.786c1.17-0.056,2.025-0.715,2.909-1.406
	c3.449-2.696,7.28-3.694,11.582-2.459c2.103,0.604,4.187,1.23,6.4,1.436c1.289,0.12,2.37,0.892,1.329,2.454
	c-1.772,2.663-3.592,5.295-5.417,7.922c-1.412,2.034-3.75,2.866-5.648,4.27c-2.761,1.026-5.607,0.711-8.376,0.252
	c-2.05-0.34-4.042-1.06-6.114-1.43c-1.793-0.319-2.188-1.428-1.26-3.036c1.413-2.449,3.095-4.751,4.115-7.418
	C178.373,93.176,178.533,92.98,178.693,92.786z"/>
<path fill-rule="evenodd" clip-rule="evenodd" fill="#FFFFFF" d="M157.38,209.447c1.008-4.444,1.125-0.529,1.541-2.083
	c0.78-2.911,1.867-3.494,4.295-1.791c2.224,1.561,4.802,2.551,6.786,4.53c1.924,1.92,3.574,3.891,4.045,6.686
	c0.067,0.399-0.294,1.721,1.054,1.374c0.015,4.71-2.637,8.146-7.066,9.152c-4.118,0.936-8.423-1.19-10.221-5.174
	C156.336,218.867,156.619,213.059,157.38,209.447z"/>
<path fill-rule="evenodd" clip-rule="evenodd" fill="#FFFFFF" d="M132.753,196.469c0.192,0.385,0.385,0.77,0.577,1.155
	c-0.826,2.621-2.804,4.507-4.304,6.693c-2.944,4.293-2.958,4.994,0.167,9.222c1.151,1.557,2.367,3.067,3.462,4.663
	c1.548,2.256,2.345,4.772,2.448,7.526c0.198,5.31-2.226,8.438-7.895,10.096c-1.21,0.19-1.786,0.233-2.764-0.046
	c-8.754-2.388-8.852-10.749-5.756-16.438c1.442-2.65,3.371-5.042,5.151-7.5c1.244-1.718,1.606-3.461,0.595-5.392
	c0.029-0.125,0.057-0.25,0.085-0.376c2.485-2.82,5.404-5.294,6.955-8.856C131.681,196.746,132.046,196.233,132.753,196.469z"/>
<path fill-rule="evenodd" clip-rule="evenodd" fill="#FFFFFF" d="M126.682,71.195c-0.616-0.028-1.282,0.095-1.689-0.562
	c1.543-2.704,3.729-4.94,5.327-7.648c2.982-5.052,2.409-9.83-0.234-14.633c-0.975-1.773-2.485-3.199-3.678-4.838
	c-0.802-1.104-1.63-1.145-2.405-0.018c-1.876,2.729-4.006,5.305-5.212,8.447c-1.03,2.683-1.075,5.348-0.064,8.076
	c0.455,1.229,1.188,2.621,0.091,3.972c-3.021-5.562-3.378-10.713-0.205-16.082c1.025-1.735,2.249-3.371,3.523-4.937
	c2.5-3.07,3.063-6.155,0.43-9.425c2.191,1.351,3.567,1.604,5.052-1.403c1.192-2.413,3.949-4.104,4.571-7.02
	c0.488-2.29,1.412-8.114,1.92-6.455c0.179,3.733-0.379,6.579-2.301,9.603c-1.33,2.093-2.794,4.111-4.322,6.066
	c-2.002,2.562-1.901,4.991,0.053,7.507c1.354,1.743,2.657,3.531,3.893,5.359c3.859,5.713,3.892,11.547,0.063,17.276
	C129.966,66.77,128.291,68.96,126.682,71.195z"/>
<path fill-rule="evenodd" clip-rule="evenodd" fill="#FFFFFF" d="M178.213,93.37c0.407,2.038-1.373,3.208-1.962,4.856
	c-0.362,1.012-1.036,1.931-1.664,2.823c-0.948,1.35-0.442,1.947,0.974,2.292c4.696,1.145,9.403,2.158,14.289,1.66
	c0.001,0.183,0.001,0.364,0.001,0.546c-2.862,1.104-5.768,0.816-8.667,0.217c-1.708-0.354-3.392-0.813-5.089-1.216
	c-2.683-0.638-5.094-0.426-6.718,2.19c-0.38-2.102-1.784-2.967-3.768-3.299c-1.894-0.316-3.75-0.85-5.637-1.206
	c-1.863-0.352-3.124-0.943-2.316-3.262c0.627-1.801,0.358-3.821,1.152-5.611c0.211,0.231,0.422,0.463,0.634,0.695
	c-0.069,1.001-0.06,2.017-0.218,3.004c-0.612,3.797-0.63,3.784,3.274,4.607c1.702,0.359,3.427,0.661,5.082,1.18
	c3.002,0.941,4.833-0.365,6.365-2.807C175.347,97.807,176.292,95.271,178.213,93.37z"/>
<path fill-rule="evenodd" clip-rule="evenodd" fill="#FFFFFF" d="M183.752,140.48c-0.184-0.366-0.368-0.731-0.552-1.096
	c5.976-1.427,10.732,0.661,14.377,5.319c1.745,2.23,3.042,4.814,4.542,7.237c-0.216,0.886,1.236,2.597-1.182,2.397
	c-0.557-2.058-2-3.662-2.857-5.558c-2.299-5.089-6.497-7.158-11.772-7.597C185.414,141.111,184.452,141.264,183.752,140.48z"/>
<path fill-rule="evenodd" clip-rule="evenodd" fill="#FFFFFF" d="M101.74,173.752c0.735,0.454,1.484,0.27,2.007-0.249
	c1.581-1.566,2.271-1.639,2.59,0.918c0.263,2.114,1.552,4.04,1.546,6.296c-0.002,0.712,0.677,0.261,1.069,0.217
	c1.622,5.589-0.218,11.346-5.021,14.989c-2.564,1.945-5.344,3.606-8.035,5.385c-1.47,0.973-2.062,2.227-1.618,4.017
	c0.753,3.038,1.406,6.104,2.08,9.16c0.686,3.116,0.054,6.066-1.337,8.85c-2.089,4.187-6.975,6.048-11.302,4.404
	c-4.4-1.672-6.809-6.493-5.464-11.067c0.94-3.2,2.754-5.836,5.528-7.72c2.058-1.397,4.143-2.776,6.322-3.971
	c2.856-1.565,3.383-3.884,2.594-6.773c-0.414-1.512-0.851-3.019-1.247-4.535c-2.13-8.165,0.028-13.681,7.149-18.2
	C99.606,174.833,100.692,174.322,101.74,173.752z"/>
<path fill-rule="evenodd" clip-rule="evenodd" fill="#FFFFFF" d="M62.303,184.723c0.538,0.698,1.406,1.232,1.158,2.322
	c-0.977,0.373-1.99,0.178-2.991,0.198c-2.577-0.161-5.077,0.353-7.574,0.862c-1.928,0.906-3.843,1.878-5.324,3.431
	c-2.186,2.29-2.501,5.055-1.575,7.979c0.75,2.367,2.563,3.657,4.912,3.897c2.946,0.301,5.697-0.337,7.764-2.735
	c0.483-0.561,0.889-1.18,1.383-1.727c0.776-0.76,1.086-1.695,1.032-2.767c0.068-1.124-0.009-2.295,1.021-3.099
	c0.279-0.162,0.545-0.143,0.798,0.057c0.487,0.26,1.031-0.836,1.077-0.359c-0.234,3.592-2.349,8.082-4.912,10.489
	c-3.752,3.526-9.447,3.377-12.936-0.252c-3.399-3.537-3.374-9.084,0.129-12.731c2.155-2.244,4.762-3.785,7.854-4.329
	C56.836,185.482,59.575,185.131,62.303,184.723z"/>
<path fill-rule="evenodd" clip-rule="evenodd" fill="#FFFFFF" d="M117.057,188.879c0.395-1.922,0.9,0.383,1.283,0.383
	c1.091,1.289,0.908,2.961,1.286,4.453c0.805,3.181,1.957,6.151,4.191,8.62c1.068,1.181,1.646,2.47,0.69,4.01l-0.072,0.104
	c-3.001-4.204-6.862-7.913-7.55-13.439C116.724,191.706,116.707,190.306,117.057,188.879z"/>
<path fill-rule="evenodd" clip-rule="evenodd" fill="#FFFFFF" d="M67.388,106.854c-5.578,1.12-11.13-0.644-14.798-5.65
	c-1.63-2.226-3.033-4.62-4.501-6.962c-1.351-2.153-3.153-2.917-5.644-2.157c-2.025,0.617-4.101,1.07-6.151,1.605
	c-3.113,0.813-6.181,0.779-9.253-0.288c-5.283-1.837-7.938-7.257-5.905-12.195c2.048-4.976,7.641-7.006,12.717-4.697
	c3.436,1.562,5.729,4.218,7.626,7.364c4.743,7.865,4.006,7.902,13.244,5.358c8.497-2.341,14.996,0.243,18.725,7.438
	c0.335,1.973,1.692,3.379,2.771,4.929c1.106,1.588,0.728,2.371-1.137,2.871C72.498,105.162,70.275,106.407,67.388,106.854z"/>
<path fill-rule="evenodd" clip-rule="evenodd" fill="#FFFFFF" d="M67.37,106.729c-0.337-0.757-0.229-1.048,0.73-1.219
	c2.343-0.42,4.632-1.135,6.972-1.58c1.561-0.296,1.388-0.792,0.784-2.019c-0.846-1.718-3.108-2.823-2.408-5.242
	c1.086,1.596,2.233,3.153,3.245,4.794c1.422,2.307,3.46,2.892,5.952,2.322c2.879-0.657,5.742-1.379,8.621-2.036
	c0.703-0.16,1.275-0.312,1.023-1.222c-0.937-3.385-0.96-6.937-1.983-10.325c-0.938-3.103-3.694-2.784-6.26-3.184
	c-0.221-0.412,0.389-1.038,0.735-1.062c2.885-0.209,2.695-2.091,2.368-4.134c-0.218-1.368-0.499-2.724-0.75-4.084
	c-1.048-5.706-4.359-9.223-10.084-10.363c-1.985-0.396-3.909-1.06-5.953-1.221c-1.837-0.146-2.649,0.154-2.328,2.389
	c0.515,3.577,0.898,7.133,2.674,10.372c0.399,0.729,0.688,1.549-0.054,2.294c-2.625-2.638-3.384-6.04-3.843-9.54
	c-1.133-8.648-1.337-8.894-10.083-10.006c-3.524-0.448-6.904-1.234-9.724-3.558c-2.988-2.461-4.627-5.533-3.804-9.474
	c0.815-3.903,3.312-6.361,7.192-7.163c3.926-0.811,6.98,0.825,9.456,3.838c2.202,2.678,3.035,5.84,3.537,9.162
	c1.415,9.35,1.416,9.411,10.81,10.567c5.705,0.702,10.169,3.104,12.738,8.441c1.179,2.449,1.496,5.112,1.896,7.755
	c1.025,6.783,1.347,7.086,8.163,8.091c1.079,0.161,0.854,0.089,3.135,0.492c-1.807,1.116-3.62,0.454-5.453,0.314
	c-2.625-0.202-3.013,0.168-2.446,2.849c0.542,2.562,0.246,5.263,1.273,7.745c0.373,0.901-0.148,1.644-0.824,1.753
	c-2.773,0.449-5.189,2.355-8.15,1.971c-0.558,0.921-2.626,0.331-2.218,2.217c0.267,1.715,1.323,3.035,2.218,4.437
	c-0.194,0.202-0.388,0.405-0.582,0.609c-0.666-0.979-1.35-1.945-1.994-2.939c-2.695-4.154-3.788-4.558-8.689-3.347
	C71.31,105.907,69.428,106.724,67.37,106.729z"/>
<path fill-rule="evenodd" clip-rule="evenodd" fill="#FFFFFF" d="M91.101,65.237c0.689-1.062,0.27-2.264-0.001-3.206
	c-0.894-3.113-0.175-6.021,0.852-8.853c0.678-1.869-0.219-4.806,1.53-5.456c1.576-0.587,3.272,1.853,5.058,2.699
	c4.855,2.304,7.997,5.868,9.056,11.306c0.38,1.953-0.114,3.673-0.477,5.403c-0.484,2.311-1.224,4.55-1.37,6.944
	c-0.148,2.414-1.924,0.659-2.901,0.986c-3.695-2.026-7.612-3.733-10.283-7.217C91.953,67.045,91.269,66.285,91.101,65.237z"/>
<path fill-rule="evenodd" clip-rule="evenodd" fill="#FFFFFF" d="M70.654,81.21c0.089-1.764-1.051-3.107-1.751-4.535
	c-1.55-3.156-0.744-6.693-1.911-9.891c-0.2-0.548,0.216-1.175,1.26-1.331c5.927-0.874,14.535,2.753,17.329,7.666
	c2.038,3.581,1.968,7.742,2.69,11.67c0.199,1.081-0.935,1.538-1.875,1.585c-0.699,0.034-0.072,0.933-1.379,0.752
	C79.804,86.568,74.147,85.814,70.654,81.21z"/>
<path fill-rule="evenodd" clip-rule="evenodd" fill="#FFFFFF" d="M118.817,63.991c-0.591-1.095-0.024-2.111-0.48-3.016
	c-2.472-4.89-0.601-9.187,1.86-13.347c1.069-1.81,2.388-3.479,3.681-5.146c0.59-0.761,1.346-1.768,2.354-0.397
	c2.906,3.949,6.657,7.486,6.724,12.884c0.033,2.705,0.067,5.397-1.689,7.818c-1.973,2.719-3.241,5.977-6.273,7.846
	c-1.684-0.535-2.57-1.857-3.669-3.123C120.307,66.393,119.525,65.288,118.817,63.991z"/>
<path fill-rule="evenodd" clip-rule="evenodd" fill="#FFFFFF" d="M121.457,67.379c2.159,0.021,2.298,2.233,3.536,3.254
	c-0.418,0.016-0.836,0.029-1.255,0.045C122.978,69.578,122.217,68.479,121.457,67.379z"/>
<path fill-rule="evenodd" clip-rule="evenodd" fill="#FFFFFF" d="M100.058,89.797c0.358,0.112,0.172,0.058,0.61,0.198
	c2.744,1.106,3.065,0.891,3.584-1.773c0.517-2.658,0.832-5.388,2.294-7.774c0.549-0.411,1.176-0.604,1.85-0.664
	c2.716,1.136,5.129,2.812,7.58,4.404c1.378,0.895,2.265,0.873,3.034-0.717c1.363-2.817,3.576-5.048,5.408-7.544
	c1.064-0.329,1.801,0.308,2.564,0.866c1.775,1.997,3.025,4.377,4.711,6.453c0.97,1.193,1.523,1.293,2.879,0.475
	c2.557-1.544,4.815-3.691,7.889-4.308c0.574,0.033,1.111,0.164,1.557,0.557c1.133,2.893,1.697,5.952,2.515,8.935
	c0.385,1.404,1.019,1.92,2.284,1.599c2.312-0.586,4.688-0.705,7.018-1.12c3.777-0.676,3.933-0.569,3.517,3.17
	c-0.031,0.272-0.052,0.546-0.104,0.817c-0.526,0.933-0.414,1.962-0.468,2.969c-0.086,1.581-1.559,3.318-0.303,4.657
	c1.099,1.172,3.088,0.921,4.67,1.343c1.239,0.331,2.48,0.716,3.729,0.943c2.05,0.374,2.888,1.42,2.5,3.457
	c-1.386,2.387-2.741,4.793-4.178,7.149c-0.442,0.726-1.125,1.205,0.029,1.96c2.7,1.767,5.332,3.638,7.979,5.481
	c1.643,1.145,3.227,1.125,4.848-0.069c1.93-1.422,3.891-2.804,5.854-4.18c6.132-4.294,12.117-4.292,18.244-0.012
	c1.965,1.372,3.942,2.729,5.906,4.104c1.904,1.333,3.767,1.262,5.622-0.104c1.783-1.311,3.598-2.581,5.363-3.917
	c2.962-2.242,6.213-3.538,9.997-3.443c5.417,0.136,9.383,4.337,9.074,9.725c-0.295,5.156-5.098,9.053-10.344,8.492
	c-3.912-0.417-7.182-2.126-10.218-4.529c-6.333-5.012-7.084-4.978-13.563-0.043c-8.17,6.224-13.88,6.257-22.034,0.129
	c-6.311-4.744-6.642-4.742-12.781,0.063c-0.436,0.342-0.842,0.765-1.335,0.981c-2.761,1.217-3.392,2.897-1.251,5.26
	c-0.057,2.395,2.559,3.534,2.739,5.822c0.045,0.928-0.233,1.711-0.997,2.284c-1.794,0.55-3.507,1.431-5.453,1.386
	c-0.917,0.228-1.929,0.013-2.771,0.598c-1.75,0.514-2.137,1.722-1.751,3.358c0.58,2.461,0.733,4.995,1.255,7.47
	c-0.372,1.237-1.376,1.771-2.457,2.222c-1.023,0.38-1.868-0.367-2.82-0.446c-0.869-0.328-1.784-0.323-2.695-0.346
	c-0.87-0.191-1.782-0.091-2.634-0.464c-1.082-0.474-1.704,0.019-1.957,1.098c-0.6,1.325-0.892,2.718-0.9,4.172
	c-0.099,0.814-0.356,1.591-0.551,2.384c-0.104,0.405-0.141,0.825-0.264,1.228c-0.435,1.384-1.279,2.188-2.824,1.999
	c-2.552-1.037-4.981-2.366-7.142-4.031c-1.821-1.402-2.566-0.383-3.417,0.929c-1.576,2.429-3.09,4.905-5.366,6.784
	c-0.52,0.187-1.048,0.222-1.583,0.081c-2.189-1.625-3.405-4.053-4.953-6.187c-1.275-1.758-2.306-2.265-4.256-0.87
	c-2,1.43-4.094,2.812-6.469,3.635c-1.376,0.085-1.932-0.915-2.511-1.889c-0.957-2.06-1.632-4.229-1.974-6.456
	c-0.35-2.29-1.344-3.23-3.639-2.408c-2.936-0.386-5.832,1.373-8.78,0.159c-0.863-0.786-0.59-1.681-0.252-2.582
	c0.761-2.296,0.905-4.693,1.146-7.073c0.163-1.254-0.769-1.61-1.652-2.007c-1.911-0.928-3.995-1.279-6.038-1.694
	c-1.906-0.388-2.971-1.277-2.865-3.301c0.58-2.164,1.971-3.92,3.03-5.837c1.502-2.718,1.558-2.634-1.015-4.576
	c-1.54-1.162-3.179-2.184-4.675-3.402c-2.298-1.872-2.265-3.243,0.222-4.95c1.666-1.143,3.15-2.576,5.018-3.396
	c1.837-0.808,2.028-1.905,0.877-3.438c-0.662-0.88-1.129-1.903-1.934-2.683c-1.079-1.439-2.269-2.821-2.392-4.744
	c0.405-1.399,1.613-1.942,2.739-2.574c2.266-0.392,4.412-1.272,6.644-1.738c1.55-0.324,1.835-1.11,1.471-2.312
	c-0.753-2.484-0.669-5.082-1.179-7.596c-0.443-2.191,0.341-3.054,2.652-2.867C96.214,89.687,96.178,89.203,100.058,89.797z
	 M127.333,90.036c-19.951-0.973-35.4,15.62-35,33.725c0.397,17.959,14.701,31.913,31.602,32.699
	c19.858,0.923,35.227-15.409,34.775-33.317C158.989,104.955,143.842,90.84,127.333,90.036z"/>
<path fill-rule="evenodd" clip-rule="evenodd" fill="#FFFFFF" d="M92.287,144.361c-3.036,0.082-5.715-1.516-8.686-1.895
	c-0.951-0.121-1.987-1.921-0.183-3.096c-0.139,1.675,0.311,2.54,2.277,2.896C87.928,142.669,90.414,142.674,92.287,144.361z"/>
<path fill-rule="evenodd" clip-rule="evenodd" fill="#FFFFFF" d="M101.71,155.447c-2.741,0.53-5.476,1.097-8.228,1.558
	c-0.554,0.094-0.947-0.481-1.196-1.003C95.456,156.292,98.537,155.078,101.71,155.447z"/>
<path fill-rule="evenodd" clip-rule="evenodd" fill="#FFFFFF" d="M92.841,153.785c-0.289-2.682,0.241-5.246,1.109-7.762
	C93.975,148.667,93.734,151.273,92.841,153.785z"/>
<path fill-rule="evenodd" clip-rule="evenodd" fill="#FFFFFF" d="M82.308,106.665c-1.355-0.406-1.462-1.015-0.163-1.61
	c0.733-0.334,1.583-0.413,2.381-0.606C83.787,105.188,83.048,105.927,82.308,106.665z"/>
<path fill-rule="evenodd" clip-rule="evenodd" fill="#FFFFFF" d="M144.949,164.317c-0.129,0.852,0.42,1.967-0.463,2.502
	c-0.889,0.538-1.671-0.171-2.309-0.839C143.682,166.394,144.309,165.344,144.949,164.317z"/>
<path fill-rule="evenodd" clip-rule="evenodd" fill="#FFFFFF" d="M109.471,166.534c-0.378,0.679-0.898,1.377-1.709,0.879
	c-0.947-0.58-0.357-1.682-0.508-2.542C108.001,165.414,108.23,166.649,109.471,166.534z"/>
<path fill-rule="evenodd" clip-rule="evenodd" fill="#FFFFFF" d="M146.612,156.557c0.03,1.577-0.314,3.062-1.109,4.434
	C145.457,159.408,145.535,157.857,146.612,156.557z"/>
<path fill-rule="evenodd" clip-rule="evenodd" fill="#FFFFFF" d="M159.362,154.893c0.959,2.82-1.125,1.58-2.218,1.664
	C157.884,156.002,158.623,155.447,159.362,154.893z"/>
<path fill-rule="evenodd" clip-rule="evenodd" fill="#FFFFFF" d="M168.785,139.371c0.622,0.353,1.455,0.729,1.279,1.512
	c-0.192,0.85-1.13,0.678-1.834,0.707C168.609,140.898,168.872,140.179,168.785,139.371z"/>
<path fill-rule="evenodd" clip-rule="evenodd" fill="#FFFFFF" d="M126.656,169.859c-0.038,0.666-0.236,1.4-0.942,1.424
	c-0.935,0.031-0.632-0.858-0.721-1.424C125.547,169.859,126.101,169.859,126.656,169.859z"/>
<path fill-rule="evenodd" clip-rule="evenodd" fill="#FFFFFF" d="M124.438,76.178c0.084-0.431,0.126-1.047,0.719-0.878
	c0.929,0.266,1.441,0.989,1.499,1.986C125.888,76.974,125.403,76.096,124.438,76.178z"/>
<path fill-rule="evenodd" clip-rule="evenodd" fill="#FFFFFF" d="M142.177,80.057c0.08-0.566,0.22-1.096,0.963-1.002
	c0.574,0.073,0.628,0.555,0.701,1.002C143.286,80.057,142.731,80.057,142.177,80.057z"/>
<path fill-rule="evenodd" clip-rule="evenodd" fill="#FFFFFF" d="M106.7,80.611c0.133-1.449,0.946-0.857,1.663-0.555
	C107.964,80.709,107.309,80.592,106.7,80.611z"/>
<path fill-rule="evenodd" clip-rule="evenodd" fill="#FFFFFF" d="M154.373,156.002c-0.934-0.135-1.996,0.37-2.772-0.555
	C152.535,155.582,153.597,155.077,154.373,156.002z"/>
<path fill-rule="evenodd" clip-rule="evenodd" fill="#FFFFFF" d="M162.688,142.697c-0.776,0.925-1.838,0.42-2.771,0.555
	C160.692,142.326,161.754,142.832,162.688,142.697z"/>
<path fill-rule="evenodd" clip-rule="evenodd" fill="#FFFFFF" d="M161.365,184.961c0.165,0.896,0.203,0.83,0.275,1.502
	c0.451,4.214-2.111,8.021-2.833,12.058c-0.281,1.568-1.371,1.642-2.153,0.874c-2.342-2.296-5.6-3.159-7.958-5.42
	c-2.865-2.745-5.001-5.406-4.495-9.981c0.378-3.437,0.78-6.77,1.808-10.062c0.494-1.584,1-1.958,2.485-0.88
	c1.701,1.233,3.65,2.122,5.428,3.257c2.354,1.505,5.35,3.383,6.595,5.963c0.357,0.741,0.332,0.585,0.697,1.976L161.365,184.961z"/>
<path fill-rule="evenodd" clip-rule="evenodd" fill="#FFFFFF" d="M60.393,158.224c-3.518,0.201-6.57-1.318-9.81-1.85
	c-0.764-0.126-1.725-0.917-1.011-1.822c2.566-3.254,3.591-7.535,7.115-10.174c4.199-3.146,8.746-3.258,13.543-2.112
	c6.396,1.526,6.33,1.5,3.403,7.286C70.835,155.085,66.827,158.597,60.393,158.224z"/>
<path fill-rule="evenodd" clip-rule="evenodd" fill="#FFFFFF" d="M57.087,131.244c-4.758-0.872-9.169-2.759-12.924-6.002
	c-0.975-0.844-1.09-2.073,0.06-3.119c4.729-4.302,9.853-7.012,16.639-5.571c4.044,0.858,6.796,3.476,9.839,5.77
	c1.067,0.804,0.512,1.889-0.306,2.6C66.604,128.216,62.437,130.743,57.087,131.244z"/>
<path fill-rule="evenodd" clip-rule="evenodd" fill="#FFFFFF" d="M124.508,206.345c-0.138-1.154,0.032-2.313-0.956-3.319
	c-3.742-3.803-4.974-8.606-5.211-13.764c0.122-3.636,2.446-6.217,4.34-8.994c0.511-0.748,1.167-1.397,1.757-2.092
	c0.728-1.167,1.669-1.266,2.772-0.556c0.05,1.182,0.856,2.037,1.535,2.798c1.886,2.114,3.129,4.533,4.009,7.181
	c0.998,2.771,0.998,5.544,0,8.316c0,0.184,0,0.369,0,0.554C130.466,200.146,128.431,204.032,124.508,206.345z"/>
<path fill-rule="evenodd" clip-rule="evenodd" fill="#FFFFFF" d="M86.743,161.545c0.185,0,0.37,0,0.554,0
	c0.422,1.108,0.422,2.218,0,3.326c0,0.185,0,0.369,0,0.554c-0.68,0.825,0.095,1.941-0.554,2.772c-0.7,1.22,0.21,2.67-0.554,3.88
	c-1.226,3.68-3.618,6.275-7.206,7.761c-1.188,0.743-2.609,0.664-3.881,1.109c-0.185,0-0.37,0-0.554,0
	c-1.217,0.721-2.667-0.195-3.88,0.554c-0.822,0.534-1.769,0.114-2.631,0.347c-0.479-0.109-0.836-0.314-0.695-0.9
	c0.078-0.766-0.258-1.636,0.554-2.218c0.424-1.109,0.23-2.217,0-3.326c0.373-4.472,1.669-8.408,6.098-10.532
	c0.852-0.675,1.943-0.949,2.771-1.662c0.554-0.186,1.109-0.371,1.663-0.556c1.409-0.737,3.029,0.214,4.435-0.554
	C84.157,161.915,85.45,161.729,86.743,161.545z"/>
<path fill-rule="evenodd" clip-rule="evenodd" fill="#FFFFFF" d="M33.483,155.452c3.161-0.221,6.193,0.96,9.295,1.731
	c1.292,0.32,1.646,1.402,1.059,2.358c-2.142,3.493-3.519,7.598-7.049,10.052c-4.841,3.367-10.659,2.859-13.293-1.571
	c-3.366-5.663,0.572-12.062,7.652-12.563C31.881,155.406,32.621,155.452,33.483,155.452z"/>
<path fill-rule="evenodd" clip-rule="evenodd" fill="#FFFFFF" d="M21.703,131.055c-3.423,0.63-5.594-1.658-6.865-4.825
	c-1.09-2.717-0.793-5.54,1.265-7.838c1.404-1.566,3.365-2.216,5.419-2.279c5.79-0.184,10.373,2.629,14.559,6.207
	c1.479,1.264,0.229,2.583-0.715,3.196C31.326,128.141,27.486,131.368,21.703,131.055z"/>
<path fill-rule="evenodd" clip-rule="evenodd" fill="#FFFFFF" d="M62.353,193.143c-0.661,1.028-0.566,2.185-0.555,3.326
	c-0.503,0.87-0.65,1.883-1.108,2.771c-2.176,3.625-5.417,5.295-9.588,4.956c-2.521-0.205-4.648-1.405-5.591-3.847
	c-1.211-3.133-1.133-6.272,1.18-8.973c1.52-1.776,3.617-2.776,5.684-3.778c2.761-0.451,5.559-0.622,8.315-1.108
	c0.973-0.061,1.917,0.026,2.771,0.555c-0.378,0.69-0.641,1.409-0.554,2.217C62.155,190.475,63.077,191.927,62.353,193.143z"/>
<path fill-rule="evenodd" clip-rule="evenodd" fill="#FFFFFF" d="M132.753,195.915c0.393-2.772,0.393-5.545,0-8.316
	C134.248,190.37,134.248,193.143,132.753,195.915z"/>
<path fill-rule="evenodd" clip-rule="evenodd" fill="#FFFFFF" d="M127.21,177.62c-0.973-0.06-1.917,0.027-2.772,0.556
	C124.985,176.107,125.905,175.902,127.21,177.62z"/>
<path fill-rule="evenodd" clip-rule="evenodd" fill="#FFFFFF" d="M82.863,162.1c-1.363,1.109-2.964,0.311-4.435,0.554
	C79.791,161.544,81.393,162.343,82.863,162.1z"/>
<path fill-rule="evenodd" clip-rule="evenodd" fill="#FFFFFF" d="M86.189,172.077c0.216-1.289-0.511-2.712,0.554-3.88
	C86.735,169.516,87.454,170.938,86.189,172.077z"/>
<path fill-rule="evenodd" clip-rule="evenodd" fill="#FFFFFF" d="M67.896,175.403c0.84,1.109,0.84,2.217,0,3.326
	C67.736,177.62,67.311,176.513,67.896,175.403z"/>
<path fill-rule="evenodd" clip-rule="evenodd" fill="#FFFFFF" d="M75.102,180.947c1.186-0.747,2.514-0.996,3.881-1.109
	C77.948,181.114,76.502,180.95,75.102,180.947z"/>
<path fill-rule="evenodd" clip-rule="evenodd" fill="#FFFFFF" d="M62.353,193.143c0.216-1.29-0.511-2.713,0.555-3.881
	c0,1.294,0,2.588,0,3.881C62.722,193.143,62.537,193.143,62.353,193.143z"/>
<path fill-rule="evenodd" clip-rule="evenodd" fill="#FFFFFF" d="M70.667,181.501c1.167-1.064,2.591-0.338,3.88-0.554
	C73.38,182.013,71.957,181.285,70.667,181.501z"/>
<path fill-rule="evenodd" clip-rule="evenodd" fill="#FFFFFF" d="M76.765,163.209c-0.586,1.115-1.63,1.471-2.771,1.662
	C74.58,163.754,75.624,163.4,76.765,163.209z"/>
<path fill-rule="evenodd" clip-rule="evenodd" fill="#FFFFFF" d="M67.342,180.947c0.185,0.185,0.369,0.37,0.554,0.554
	c0.163,0.207,0.517,0.223,0.554,0.554c-0.79,0.948-1.29,0.144-1.678-0.372C66.301,181.057,66.906,181.011,67.342,180.947z"/>
<path fill-rule="evenodd" clip-rule="evenodd" fill="#FFFFFF" d="M68.45,182.055c-0.185-0.184-0.37-0.369-0.554-0.554
	c0.923,0,1.848,0,2.771,0C70.085,182.313,69.216,181.977,68.45,182.055z"/>
<path fill-rule="evenodd" clip-rule="evenodd" fill="#FFFFFF" d="M86.743,168.197c0.135-0.935-0.371-1.997,0.554-2.772
	C87.163,166.359,87.668,167.422,86.743,168.197z"/>
<path fill-rule="evenodd" clip-rule="evenodd" fill="#FFFFFF" d="M163.242,82.828c0.05-9.574,3.73-16.089,13.752-17.195
	c1.536-0.169,3.083-0.32,4.588-0.652c1.203-0.266,2.073,0.289,1.946,1.249c-0.84,6.379-0.992,13.067-7.544,16.991
	c-2.255,1.35-4.737,1.28-7.124,1.788c-1.523,0.324-3.059,0.553-4.51,1.146C160.51,86.203,163.201,84.074,163.242,82.828z"/>
<path fill-rule="evenodd" clip-rule="evenodd" fill="#FFFFFF" d="M144.949,73.959c0.457,0.012,0.87,0.109,1.109,0.555
	c-0.261,0.455-0.624,0.553-1.048,0.25C144.696,74.541,144.549,74.26,144.949,73.959z"/>
<path fill-rule="evenodd" clip-rule="evenodd" fill="#FFFFFF" d="M183.752,140.48c2.57-0.086,5.084,0.069,7.549,0.985
	c3.652,1.36,6.168,3.779,7.516,7.426c0.676,1.827,3.307,2.895,2.12,5.447c-4.908,1.035-9.604,3.422-14.892,1.791
	c-5.716-1.762-8.207-6.406-10.607-11.215c-0.506-1.062-0.702-2.062,0.555-2.771c0.554-0.186,1.108-0.37,1.663-0.554
	c1.267,0.766,2.242-0.222,3.326-0.555C181.904,140.85,182.829,140.665,183.752,140.48z"/>
<path fill-rule="evenodd" clip-rule="evenodd" fill="#FFFFFF" d="M175.992,142.144c-0.528,0.854-0.615,1.799-0.555,2.771
	c-0.493-0.665-1.668-0.995-1.316-2.067C174.387,142.044,175.278,142.159,175.992,142.144z"/>
<path fill-rule="evenodd" clip-rule="evenodd" fill="#FFFFFF" d="M180.981,141.035c-0.996,0.865-1.992,1.723-3.326,0.555
	C178.763,141.404,179.872,141.219,180.981,141.035z"/>
<path fill-rule="evenodd" clip-rule="evenodd" fill="#FFFFFF" d="M133.418,226.57c0.215,4.433-3.008,6.531-6.453,7.488
	c-3.325,0.923-6.231-1.012-7.682-4.722c-1.111-2.845-0.891-5.403,0.44-8.39c1.208-2.71,2.814-4.992,4.412-7.379
	c1.046-1.563,1.257-1.888,2.972-0.133c2.919,2.985,5.266,5.985,5.9,10.155C133.16,224.582,133.282,225.578,133.418,226.57z"/>
<path fill-rule="evenodd" clip-rule="evenodd" fill="#FFFFFF" d="M60.689,186.49c-2.69,0.979-5.49,1.136-8.315,1.108
	C55.065,186.62,57.865,186.462,60.689,186.49z"/>
<path fill-rule="evenodd" clip-rule="evenodd" fill="#FFFFFF" d="M60.689,199.24c-0.034-1.086,0.227-2.053,1.108-2.771
	C61.831,197.554,61.571,198.521,60.689,199.24z"/>
<path fill-rule="evenodd" clip-rule="evenodd" fill="#FFFFFF" d="M87.01,165.4c0-1.222-2.017-3.487,1.729-5.021
	C89.737,161.603,88.235,167.539,87.01,165.4z"/>
</svg>
